<?xml version="1.0" encoding="UTF-8"?>
<svg width="15px" height="15px" viewBox="0 0 15 15" version="1.1" xmlns="http://www.w3.org/2000/svg" xmlns:xlink="http://www.w3.org/1999/xlink">
    <title>mdpi/复制</title>
    <g id="页面-1" stroke="none" stroke-width="1" fill="none" fill-rule="evenodd">
        <g id="1动画时间轴" transform="translate(-113.000000, -885.000000)" fill="#999999" fill-rule="nonzero" stroke="#999999" stroke-width="0.2">
            <g id="编组-9" transform="translate(0.000000, 815.000000)">
                <g id="编组-27备份" transform="translate(110.000000, 67.000000)">
                    <g id="复制" transform="translate(3.000000, 3.000000)">
                        <g transform="translate(7.000000, 7.000000) rotate(-180.000000) translate(-7.000000, -7.000000) " id="形状">
                            <path d="M9.16667733,3.66667093 C9.71667797,3.66667093 10.0833451,4.03333803 10.0833451,4.58333867 L10.0833451,11.9166805 C10.0833451,12.4666812 9.71667797,12.8333483 9.16667733,12.8333483 L1.83333547,12.8333483 C1.28333483,12.8333483 0.916667733,12.4666812 0.916667733,11.9166805 L0.916667733,4.58333867 C0.916667733,4.03333803 1.28333483,3.66667093 1.83333547,3.66667093 L9.16667733,3.66667093 M9.16667733,2.7500032 L1.83333547,2.7500032 C0.82500096,2.7500032 0,3.57500416 0,4.58333867 L0,11.9166805 C0,12.925015 0.82500096,13.750016 1.83333547,13.750016 L9.16667733,13.750016 C10.1750118,13.750016 11.0000128,12.925015 11.0000128,11.9166805 L11.0000128,4.58333867 C11.0000128,3.57500416 10.1750118,2.7500032 9.16667733,2.7500032 Z M13.750016,7.79167573 L13.750016,2.29166933 C13.750016,1.00833451 12.7416815,0 11.4583467,0 L5.95834027,0 C4.67500544,0 3.66667093,1.00833451 3.66667093,2.29166933 L3.66667093,2.7500032 L4.58333867,2.7500032 L4.58333867,2.29166933 C4.58333867,1.55833515 5.22500608,0.916667733 5.95834027,0.916667733 L11.4583467,0.916667733 C12.1916809,0.916667733 12.8333483,1.55833515 12.8333483,2.29166933 L12.8333483,7.79167573 C12.8333483,8.52500992 12.1916809,9.16667733 11.4583467,9.16667733 L11.0000128,9.16667733 L11.0000128,10.0833451 L11.4583467,10.0833451 C12.7416815,10.0833451 13.750016,9.07501056 13.750016,7.79167573 Z M8.2500032,8.2500096 C8.2500032,7.97500928 8.06667605,7.79167573 7.79167573,7.79167573 L3.20833707,7.79167573 C2.93333675,7.79167573 2.7500032,7.97500928 2.7500032,8.2500096 C2.7500032,8.52500992 2.93333675,8.70834347 3.20833707,8.70834347 L7.79167573,8.70834347 C8.06667605,8.70834347 8.2500032,8.52500992 8.2500032,8.2500096 Z M5.95834027,10.5416789 L5.95834027,5.95834027 C5.95834027,5.68333995 5.77500672,5.5000064 5.5000064,5.5000064 C5.22500608,5.5000064 5.04167253,5.68333995 5.04167253,5.95834027 L5.04167253,10.5416789 C5.04167253,10.8166793 5.22500608,11.0000064 5.5000064,11.0000064 C5.77500672,11.0000064 5.95834027,10.8166793 5.95834027,10.5416789 Z"></path>
                        </g>
                    </g>
                </g>
            </g>
        </g>
    </g>
</svg>