<?xml version="1.0" encoding="UTF-8"?>
<svg width="14px" height="14px" viewBox="0 0 14 14" version="1.1" xmlns="http://www.w3.org/2000/svg" xmlns:xlink="http://www.w3.org/1999/xlink">
    <title>mdpi/删除</title>
    <g id="页面-1" stroke="none" stroke-width="1" fill="none" fill-rule="evenodd">
        <g id="1动画时间轴" transform="translate(-137.000000, -885.000000)" fill="#999999" fill-rule="nonzero">
            <g id="编组-9" transform="translate(0.000000, 815.000000)">
                <g id="编组-9备份-2" transform="translate(134.000000, 67.000000)">
                    <g id="删除" transform="translate(3.000000, 3.000000)">
                        <g transform="translate(7.055556, 7.000000) rotate(-360.000000) translate(-7.055556, -7.000000) translate(0.555556, 0.000000)" id="形状">
                            <path d="M11.8325276,2.18671898 L8.3718013,2.18671898 C8.3194653,1.03504295 7.36623828,0.114183367 6.20186258,0.114183367 C5.03748688,0.114183367 4.08425985,1.03504295 4.03192386,2.18671898 L0.561789827,2.18671898 C0.266472426,2.18671898 0.0270669828,2.42612442 0.0270669828,2.72144183 C0.0270669828,3.01675923 0.266472426,3.25616467 0.561789827,3.25616467 L11.8325276,3.25616467 C12.127845,3.25616467 12.3672504,3.01675923 12.3672504,2.72144183 C12.3672504,2.42612442 12.127845,2.18671898 11.8325276,2.18671898 Z M6.20186258,1.18361235 C6.77633873,1.18361235 7.24940134,1.62519315 7.3000162,2.18670227 L5.10372567,2.18670227 C5.15434053,1.62519315 5.62738643,1.18361235 6.20186258,1.18361235 L6.20186258,1.18361235 Z M10.4957204,4.32288661 C10.200403,4.32288661 9.9609976,4.56229206 9.9609976,4.85760946 L9.9609976,12.8479228 L2.48345005,12.8479228 L2.48345005,4.85760946 C2.48345005,4.56229206 2.24404461,4.32288661 1.9487272,4.32288661 C1.6534098,4.32288661 1.41400436,4.56229206 1.41400436,4.85760946 L1.41400436,13.3826456 C1.41400436,13.677963 1.6534098,13.9173685 1.9487272,13.9173685 L10.4957204,13.9173685 C10.7910378,13.9173685 11.0304433,13.677963 11.0304433,13.3826456 L11.0304433,4.85760946 C11.0304433,4.56229206 10.7910378,4.32288661 10.4957204,4.32288661 Z"></path>
                            <path d="M5.17460986,10.689631 L5.17460986,5.93403997 C5.17460986,5.63872256 4.93520442,5.39931712 4.63988702,5.39931712 C4.34456962,5.39931712 4.10516418,5.63872256 4.10516418,5.93403997 L4.10516418,10.6896143 C4.10516418,10.9849317 4.34456962,11.2243371 4.63988702,11.2243371 C4.93520442,11.2243371 5.17460986,10.9849484 5.17460986,10.689631 Z M8.37516003,10.689631 L8.37516003,5.93403997 C8.37516003,5.63872256 8.13575459,5.39931712 7.84043719,5.39931712 C7.54511978,5.39931712 7.30571434,5.63872256 7.30571434,5.93403997 L7.30571434,10.6896143 C7.30571434,10.9849317 7.54511978,11.2243371 7.84043719,11.2243371 C8.13575459,11.2243371 8.37516003,10.9849484 8.37516003,10.689631 Z"></path>
                        </g>
                    </g>
                </g>
            </g>
        </g>
    </g>
</svg>