<?xml version="1.0" encoding="UTF-8"?>
<svg width="14px" height="16px" viewBox="0 0 14 16" version="1.1" xmlns="http://www.w3.org/2000/svg" xmlns:xlink="http://www.w3.org/1999/xlink">
    <title>mdpi/拖拽</title>
    <g id="页面-1" stroke="none" stroke-width="1" fill="none" fill-rule="evenodd">
        <g id="1动画时间轴" transform="translate(-953.000000, -786.000000)" fill-rule="nonzero">
            <g id="拖拽" transform="translate(953.000000, 786.000000)">
                <path d="M5.9594634,11.0973098 L5.9594634,9.0216355 L0.15433103,9.0216355 L0.15433103,6.97838312 L5.9594634,6.97838312 L5.9594634,4.90811509 L3.02404078,4.90811509 L7.00000943,-1.29189588e-15 L10.9759781,4.90811509 L8.04603285,4.90811509 L8.04603285,6.97838312 L13.8456878,6.97838312 L13.8456878,9.0216355 L8.04603285,9.0216355 L8.04603285,11.0973098 L10.9759781,11.0973098 L7.00000943,16.0000186 L3.02404078,11.0973098 L5.9594634,11.0973098 Z M7.00000468,15.5675806 L10.4064038,11.3621695 L7.7721902,11.3621695 L7.7721902,8.75135393 L13.5718452,8.75135393 L13.5718452,7.24864906 L7.7721902,7.24864906 L7.7721902,4.63783352 L10.4064038,4.63783352 L7.00000468,0.432422378 L3.59360557,4.63783352 L6.23329655,4.63783352 L6.23329655,7.24864906 L0.428164182,7.24864906 L0.428164182,8.75135393 L6.23329655,8.75135393 L6.23329655,11.3621695 L3.59360557,11.3621695 L7.00000468,15.5675806 Z" id="形状" fill="#FFFFFF"></path>
                <polygon id="路径" fill="#151515" points="7.00000943 15.5675806 3.59361032 11.3621695 6.2333013 11.3621695 6.2333013 8.75135393 0.428168931 8.75135393 0.428168931 7.24864906 6.2333013 7.24864906 6.2333013 4.63783352 3.59361032 4.63783352 7.00000943 0.432422378 10.4064085 4.63783352 7.77219495 4.63783352 7.77219495 7.24864906 13.5718499 7.24864906 13.5718499 8.75135393 7.77219495 8.75135393 7.77219495 11.3621695 10.4064085 11.3621695 7.00000943 15.5675806"></polygon>
            </g>
        </g>
    </g>
</svg>