<?xml version="1.0" encoding="UTF-8"?>
<svg width="20px" height="22px" viewBox="0 0 20 22" version="1.1" xmlns="http://www.w3.org/2000/svg" xmlns:xlink="http://www.w3.org/1999/xlink">
    <title>mdpi/sharpicons_clock</title>
    <g id="页面-1" stroke="none" stroke-width="1" fill="none" fill-rule="evenodd">
        <g id="1动画时间轴" transform="translate(-1516.000000, -16.000000)" fill="#5584FF">
            <g id="sharpicons_clock" transform="translate(1516.000000, 16.000000)">
                <path d="M10.6484425,2.3057144 C10.6484425,2.29286286 10.6560022,2.28152335 10.6560022,2.2679158 L10.6560022,1.51194379 L12.1679462,1.51194379 C12.5854581,1.51194381 12.9239182,1.17348371 12.9239182,0.755971776 C12.9239182,0.338459845 12.5854581,-2.36328924e-07 12.1679462,-2.36328924e-07 L7.63211884,-2.36328924e-07 C7.21460687,-2.36328924e-07 6.87614679,0.338459845 6.87614679,0.755971776 C6.8761468,1.17348371 7.21460687,1.51194379 7.6321188,1.51194379 L9.14406285,1.51194379 L9.14406285,2.2679158 C9.14406285,2.28152331 9.15162257,2.29286286 9.15162257,2.3057144 C4.08207116,2.69126055 0.0724053602,6.92924322 0.0724053602,12.0955475 C0.0724053602,15.693222 2.02130169,18.8365551 4.91366353,20.5488253 L6.35077649,21.2496005 C7.45374004,21.6789926 8.64742061,21.9231719 9.90007457,21.9231719 C11.1527214,21.9231719 12.3464044,21.6789926 13.4493726,21.2496005 L14.8872434,20.5495817 C17.7780833,18.8357919 19.7277454,15.6924658 19.7277454,12.0955476 C19.7277454,6.92924322 15.7179939,2.69126055 10.6484425,2.3057144 Z M16.0475775,17.1741739 L16.0475775,17.1741739 C15.7575269,16.873862 15.278943,16.8655456 14.9786334,17.155596 C14.6783215,17.4456466 14.6700051,17.9242305 14.9600556,18.2245401 C14.9661401,18.2308399 14.9723336,18.2370334 14.9786334,18.243118 L15.2175212,18.4820058 L15.2175209,18.4820061 C13.9248377,19.5617456 12.3334637,20.2213429 10.655981,20.3726924 L10.655981,20.033261 L10.655981,20.033261 C10.655981,19.615749 10.317521,19.277289 9.90000903,19.277289 C9.48249709,19.277289 9.14403701,19.615749 9.14403701,20.033261 L9.14403701,20.3734486 L9.14403681,20.3734486 C7.46646676,20.2218822 5.87509512,19.5620174 4.58249694,18.4820061 L4.82138477,18.2431182 L4.82138478,18.2431182 C5.12169673,17.9530677 5.13001312,17.4744837 4.83996265,17.1741742 C4.54991207,16.8738622 4.07132816,16.8655458 3.77101857,17.1555963 C3.76471881,17.1616808 3.75852526,17.1678744 3.75244072,17.1741741 L3.51355289,17.413062 L3.51355272,17.4130618 C2.43381553,16.1203785 1.77421587,14.5290045 1.62286644,12.8515219 L1.96229783,12.8515219 L1.96229779,12.8515219 C2.37980973,12.8515219 2.71826981,12.5130618 2.71826981,12.0955499 C2.71826983,11.6780379 2.37980973,11.3395779 1.96229779,11.3395779 L1.62211015,11.3395779 L1.62211015,11.3395768 C1.77367687,9.66200671 2.43354145,8.07063508 3.51355278,6.77803689 L3.75244062,7.01692473 L3.75244057,7.01692468 C4.04593681,7.31210594 4.52315475,7.31347192 4.81833601,7.01997502 C4.81935566,7.01896119 4.8203724,7.01794444 4.82138623,7.0169248 L4.82138622,7.0169248 C5.11650368,6.72171755 5.11650368,6.24318799 4.82138624,5.94798073 L4.5824984,5.70909289 L4.58249796,5.70909326 C5.87518122,4.62935606 7.46655522,3.96975877 9.14403784,3.81840698 L9.14403784,4.15783837 L9.14403784,4.15783828 C9.14403778,4.57535022 9.48249792,4.9138103 9.90000985,4.9138103 C10.3175218,4.91381036 10.6559819,4.57535022 10.6559819,4.15783828 C10.6559819,4.15783826 10.6559819,4.15783824 10.6559819,4.15783822 L10.6559819,3.81765058 L10.6559823,3.81765058 C12.3335524,3.969217 13.924924,4.62908182 15.2175222,5.70909315 L14.9786344,5.94798099 L14.9786343,5.94798101 C14.6783224,6.23803158 14.670006,6.7166155 14.9600565,7.01692508 C15.2501071,7.31723704 15.728691,7.32555343 16.0290006,7.03550291 C16.0353004,7.02941837 16.0414939,7.02322482 16.0475784,7.01692504 L16.2864663,6.7780372 L16.2864664,6.77803735 C17.366206,8.07072061 18.0258033,9.66209461 18.177155,11.3395772 L17.8377237,11.3395772 L17.8377236,11.3395772 C17.4202117,11.3395772 17.0817516,11.6780373 17.0817516,12.0955492 C17.0817516,12.5130612 17.4202117,12.8515212 17.8377236,12.8515212 L18.1779113,12.8515212 L18.1779113,12.8515214 C18.0263449,14.5290915 17.3664801,16.1204631 16.2864687,17.4130613 L16.0475809,17.1741734 L16.0475775,17.1741739 Z" id="形状"></path>
                <path d="M14.4358414,11.3395802 L10.6559814,11.3395802 L10.6559814,6.80375284 L10.6559814,6.80375284 C10.6559814,6.38624091 10.3175213,6.04778083 9.90000935,6.04778083 C9.48249742,6.04778083 9.14403734,6.38624091 9.14403734,6.80375284 L9.14403734,12.0955475 L9.14403734,12.0955474 C9.14403734,12.5130593 9.48249742,12.8515194 9.90000935,12.8515194 C9.90000936,12.8515194 9.90000937,12.8515194 9.90000938,12.8515194 L14.4358367,12.8515194 L14.4358367,12.8515194 C14.8533486,12.8515194 15.1918087,12.5130593 15.1918087,12.0955474 C15.1918087,11.6780355 14.8533486,11.3395754 14.4358367,11.3395754 L14.4358414,11.3395802 Z" id="路径"></path>
            </g>
        </g>
    </g>
</svg>