<?xml version="1.0" encoding="UTF-8"?>
<svg width="26px" height="26px" viewBox="0 0 26 26" version="1.1" xmlns="http://www.w3.org/2000/svg" xmlns:xlink="http://www.w3.org/1999/xlink">
    <title>mdpi/编组 30备份</title>
    <g id="页面-1" stroke="none" stroke-width="1" fill="none" fill-rule="evenodd">
        <g id="文字" transform="translate(-48.000000, -515.000000)">
            <g id="编组-29备份" transform="translate(48.000000, 515.000000)">
                <rect id="矩形" x="0" y="0" width="26" height="26"></rect>
                <path d="M12.9202012,21.6793311 C16.8398857,21.6793311 19.6718477,19.9945234 19.6718477,16.4943848 C19.6718477,14.0972617 18.229917,12.7110156 16.208125,12.2838232 L16.208125,12.1772617 C17.8065479,11.6358232 18.7156709,10.045123 18.7156709,8.34494629 C18.7156709,5.15586133 16.1016396,4 12.5006934,4 L7,4 L7,21.6793311 L12.9202012,21.6793311 Z M12.1742705,11.3785996 L9.79626367,11.3785996 L9.79626367,6.17904004 L12.2482012,6.17904004 C14.7347002,6.17904004 15.9760381,6.88658594 15.9760381,8.7289082 C15.9760381,10.3648076 14.8643154,11.3785996 12.1742705,11.3785996 Z M12.6082012,19.4897295 L9.79626367,19.4897295 L9.79626367,13.4875703 L12.6082012,13.4875703 C15.4143848,13.4875703 16.9427764,14.3727314 16.9427764,16.3542461 C16.9427764,18.5028145 15.3587002,19.4897295 12.6082012,19.4897295 Z" id="B" fill="#5584FF" fill-rule="nonzero"></path>
            </g>
        </g>
    </g>
</svg>