<?xml version="1.0" encoding="UTF-8"?>
<svg width="16px" height="16px" viewBox="0 0 16 16" version="1.1" xmlns="http://www.w3.org/2000/svg" xmlns:xlink="http://www.w3.org/1999/xlink">
    <title>mdpi/新建</title>
    <g id="页面-1" stroke="none" stroke-width="1" fill="none" fill-rule="evenodd">
        <g id="1动画制作视图" transform="translate(-1174.000000, -288.000000)" fill="#333333" fill-rule="nonzero" stroke="#000000" stroke-width="0.2">
            <g id="新建" transform="translate(1175.000000, 289.000000)">
                <g id="新增" transform="translate(7.000000, 7.000000) rotate(-180.000000) translate(-7.000000, -7.000000) ">
                    <path d="M7.00000943,0.0294750046 C3.15811022,0.0294750046 0.0294750046,3.15811022 0.0294750046,7.00000943 C0.0294750046,10.8419086 3.15811022,13.9705439 7.00000943,13.9705439 C10.8419086,13.9705439 13.9705439,10.8419086 13.9705439,7.00000943 C13.9705439,3.15811022 10.8419086,0.0294750046 7.00000943,0.0294750046 Z M7.00000943,12.9979111 C3.69305822,12.9979111 1.00210772,10.3069606 1.00210772,7.00000943 C1.00210772,3.69305822 3.69305822,1.00210772 7.00000943,1.00210772 C10.3069606,1.00210772 12.9979111,3.69305822 12.9979111,7.00000943 C12.9979111,10.3069606 10.3069606,12.9979111 7.00000943,12.9979111 Z M7.48632579,3.02842586 L6.51369308,3.02842586 L6.51369308,6.51369308 L3.02842586,6.51369308 L3.02842586,7.48632579 L6.51369308,7.48632579 L6.51369308,10.971593 L7.48632579,10.971593 L7.48632579,7.48632579 L10.971593,7.48632579 L10.971593,6.51369308 L7.48632579,6.51369308 L7.48632579,3.02842586 Z" id="形状"></path>
                </g>
            </g>
        </g>
    </g>
</svg>