<?xml version="1.0" encoding="UTF-8"?>
<svg width="14px" height="14px" viewBox="0 0 14 14" version="1.1" xmlns="http://www.w3.org/2000/svg" xmlns:xlink="http://www.w3.org/1999/xlink">
    <title>mdpi/关闭</title>
    <g id="页面-1" stroke="none" stroke-width="1" fill="none" fill-rule="evenodd">
        <g id="1动画制作视图" transform="translate(-957.000000, -167.000000)" fill="#333333" fill-rule="nonzero">
            <g id="关闭" transform="translate(957.000000, 167.000000)">
                <g id="差号" transform="translate(2.000000, 2.000000)">
                    <path d="M9.53732906,8.35530034 C9.86597378,8.68454985 9.86597378,9.21806228 9.53672447,9.54730857 C9.37270397,9.71193278 9.15686524,9.79426745 8.94103725,9.79426745 C8.72517597,9.79426745 8.50933724,9.71193321 8.34471302,9.54730857 L4.98082532,6.18331344 L1.61692688,9.54730857 C1.45230266,9.71193278 1.23646286,9.79426745 1.02060265,9.79426745 C0.804763919,9.79426745 0.588935933,9.71193321 0.42491543,9.54730857 C0.0956659256,9.21805906 0.0956659256,8.68454662 0.424310837,8.35530034 L3.78853155,4.99095073 L0.424310837,1.62660111 C0.0956661189,1.2973516 0.0956661189,0.763839166 0.42491543,0.434592884 C0.752955362,0.105321896 1.28767737,0.105321896 1.61692365,0.434592884 L4.9808221,3.79858801 L8.3447098,0.434592884 C8.67395931,0.105321896 9.20868131,0.105321896 9.53671802,0.434592884 C9.86596753,0.763842389 9.86596753,1.29735483 9.53732262,1.62660111 L6.17310191,4.99095073 L9.53732262,8.35530034 L9.53732906,8.35530034 Z" id="路径"></path>
                </g>
            </g>
        </g>
    </g>
</svg>