<?xml version="1.0" encoding="UTF-8"?>
<svg width="14px" height="14px" viewBox="0 0 14 14" version="1.1" xmlns="http://www.w3.org/2000/svg" xmlns:xlink="http://www.w3.org/1999/xlink">
    <title>mdpi/差</title>
    <g id="页面-1" stroke="none" stroke-width="1" fill="none" fill-rule="evenodd">
        <g id="2动画制作视图-点击更多时弹窗下拉样式" transform="translate(-1536.000000, -37.000000)" fill="#FFFFFF" fill-rule="nonzero">
            <g id="编组-43" transform="translate(1520.000000, 24.000000)">
                <g id="差" transform="translate(16.000000, 13.000000)">
                    <path d="M12.9827355,13.7680161 C12.7858137,13.7680161 12.588892,13.6928808 12.4386366,13.5426254 L0.412260279,1.51627914 C0.11177946,1.21579832 0.11177946,0.728562209 0.412260279,0.428066352 C0.712786214,0.127585533 1.20000729,0.127585533 1.50048811,0.428066352 L13.5268193,12.4544276 C13.8273151,12.7549235 13.8273151,13.2421445 13.5268193,13.5426554 C13.3765789,13.6928958 13.1796572,13.7680161 12.9827204,13.7680161 L12.9827355,13.7680161 Z" id="路径"></path>
                    <path d="M0.956374193,13.7680161 C0.75945248,13.7680161 0.562530766,13.6928808 0.412275318,13.5426254 C0.111794499,13.2421445 0.111794499,12.7549084 0.412275318,12.4544126 L12.4386215,0.428081391 C12.7391324,0.127600572 13.2263234,0.127600572 13.5268494,0.428081391 C13.8273302,0.728577248 13.8273302,1.21579832 13.5268494,1.51630922 L1.50045803,13.5426254 C1.35021762,13.6928658 1.15329591,13.7680161 0.956359154,13.7680161 L0.956374193,13.7680161 Z" id="路径"></path>
                </g>
            </g>
        </g>
    </g>
</svg>