<?xml version="1.0" encoding="UTF-8"?>
<svg width="26px" height="26px" viewBox="0 0 26 26" version="1.1" xmlns="http://www.w3.org/2000/svg" xmlns:xlink="http://www.w3.org/1999/xlink">
    <title>mdpi/编组 29</title>
    <g id="页面-1" stroke="none" stroke-width="1" fill="none" fill-rule="evenodd">
        <g id="文字" transform="translate(-40.000000, -451.000000)">
            <g id="编组-29" transform="translate(40.000000, 451.000000)">
                <rect id="矩形" x="0" y="0" width="26" height="26"></rect>
                <g id="文字竖版" transform="translate(4.000000, 5.000000)" fill="#333333" fill-rule="nonzero">
                    <path d="M4.38011913,1.19007367 L4.38011913,0.14287245 L16.9515623,0.14287245 L16.9515623,3.28573325 L14.8571599,3.28573325 L14.8571599,2.23853203 L11.7142991,2.23853203 L11.7142991,13.761512 L13.8087015,13.761512 L13.8087015,15.8571715 L7.52423216,15.8571715 L7.52423216,13.761512 L9.6186346,13.761512 L9.6186346,2.23853203 L6.4757738,2.23853203 L6.4757738,3.28699039 L4.38137136,3.28699039 L4.38137136,1.19007367 L4.38011913,1.19007367 Z M0.191314252,10.0956889 L0.191314252,0.667106542 L2.28572651,0.667106542 L2.28572651,10.0956889 L4.38138609,10.0956889 L0.191314252,15.3329473 L0.191314252,10.0956889 L0.191314252,10.0956889 Z" id="形状"></path>
                </g>
            </g>
        </g>
    </g>
</svg>