<?xml version="1.0" encoding="UTF-8"?>
<svg width="12px" height="14px" viewBox="0 0 12 14" version="1.1" xmlns="http://www.w3.org/2000/svg" xmlns:xlink="http://www.w3.org/1999/xlink">
    <title>mdpi/锁定</title>
    <g id="页面-1" stroke="none" stroke-width="1" fill="none" fill-rule="evenodd">
        <g id="主图水印备份-3" transform="translate(-1075.000000, -639.000000)" fill="#333333" fill-rule="nonzero">
            <g id="编组-6" transform="translate(1069.000000, 634.000000)">
                <g id="锁定" transform="translate(6.000000, 5.000000)">
                    <path d="M5.95691712,-2.0950184e-07 C7.73135637,-2.0950184e-07 9.17365236,1.56189447 9.20560874,3.50236995 L9.20615028,3.56777924 L9.20615028,4.75703898 L10.6502514,4.75703898 L10.6502514,4.75703898 C11.3312579,4.75702665 11.8897697,5.34960623 11.9131178,6.0969383 L11.9138399,6.14450869 L11.9138399,12.4872273 L11.9138399,12.4872273 C11.9138399,13.2535055 11.3481119,13.874697 10.6502514,13.874697 C10.6502514,13.874697 10.6502514,13.874697 10.6502514,13.874697 L1.26359413,13.874697 L1.26359407,13.874697 C0.565733616,13.874697 5.59180429e-06,13.2535055 5.59180429e-06,12.4872273 C5.59180429e-06,12.4872273 5.59180429e-06,12.4872273 5.59180429e-06,12.4872273 L5.59180429e-06,6.14450869 L5.59180429e-06,6.14450848 C5.59180429e-06,5.37823033 0.565733616,4.75703877 1.26359407,4.75703877 L2.70769519,4.75703877 L2.70769519,3.56777903 C2.70769519,1.59737074 4.16244374,-2.0950184e-07 5.95692271,-2.0950184e-07 L5.95691712,-2.0950184e-07 Z M10.6502458,5.94629873 L1.26358848,5.94629873 L1.26358847,5.94629873 C1.16389416,5.94629873 1.08307583,6.03504042 1.08307583,6.14450869 C1.08307583,6.14450869 1.08307583,6.14450869 1.08307583,6.14450869 L1.08307583,12.4872273 L1.08307583,12.4872274 C1.08307583,12.5966956 1.16389416,12.6854373 1.26358847,12.6854373 L10.6502458,12.6854373 L10.6502457,12.6854373 C10.7499401,12.6854373 10.8307584,12.5966958 10.8307584,12.4872274 L10.8307584,6.14450872 L10.8307584,6.14450872 C10.8307584,6.03504045 10.7499401,5.94629873 10.6502457,5.94629873 L10.6502458,5.94629873 Z M5.95691712,1.18925975 C4.77907214,1.18925975 3.82073336,2.22173542 3.79148467,3.5073252 L3.79076262,3.56777924 L3.79076262,4.75703898 L8.12306598,4.75703898 L8.12306598,3.56777924 C8.12306598,2.25424185 7.15317156,1.18925975 5.9569143,1.18925975 L5.95691712,1.18925975 Z" id="形状"></path>
                    <path d="M5.95691712,7.53197835 L5.95691712,7.53197835 C6.24367132,7.53197835 6.48072954,7.77739793 6.49755247,8.09172331 L6.49845504,8.12660826 L6.49863555,8.88040073 L6.49863563,8.88040079 C7.01666319,9.20880526 7.19415224,9.93614599 6.89506818,10.5049637 C6.59598553,11.0737782 5.93358594,11.2686682 5.41555556,10.9402622 C4.897528,10.6118577 4.72003895,9.88451695 5.01912301,9.31569927 C5.1141828,9.13490857 5.25090829,8.98478001 5.41555697,8.88040079 L5.41519586,8.12660832 L5.41519586,8.12660823 C5.41519591,7.79820375 5.65765113,7.53197835 5.95673378,7.53197835 L5.95691712,7.53197835 Z" id="路径"></path>
                </g>
            </g>
        </g>
    </g>
</svg>