<?xml version="1.0" encoding="UTF-8"?>
<svg width="28px" height="28px" viewBox="0 0 28 28" version="1.1" xmlns="http://www.w3.org/2000/svg" xmlns:xlink="http://www.w3.org/1999/xlink">
    <title>mdpi/编组 4</title>
    <g id="页面-1" stroke="none" stroke-width="1" fill="none" fill-rule="evenodd">
        <g id="画布" transform="translate(-26.000000, -235.000000)">
            <g id="编组-4" transform="translate(26.000000, 235.000000)">
                <rect id="矩形备份-8" x="0" y="0" width="28" height="28"></rect>
                <g id="首页-任务模版" transform="translate(2.000000, 2.000000)" fill="#333333">
                    <path d="M1.62734875,0.14635744 L22.3698208,0.14635744 C23.1890926,0.14635744 23.8508121,0.736462293 23.8508121,1.46406731 L23.8508121,5.41719691 C23.8508121,6.14480192 23.186228,6.73490677 22.3698208,6.73490677 L1.62734875,6.73490677 C0.80807696,6.73490677 0.14635744,6.14480192 0.14635744,5.41719691 L0.14635744,1.46406731 C0.14635744,0.736462293 0.810941547,0.14635744 1.62734875,0.14635744 Z M1.54714032,9.36173275 L5.74662437,9.36173275 C6.52006277,9.36173275 7.14740725,10.0091293 7.14740725,10.8112136 L7.14740725,22.4041958 C7.14740725,23.2034155 6.52006277,23.8536767 5.74662437,23.8536767 L1.54714032,23.8536767 C0.77370192,23.8536767 0.14635744,23.2062801 0.14635744,22.4041958 L0.14635744,10.8112136 C0.14635744,10.0119939 0.77370192,9.36173275 1.54714032,9.36173275 Z M11.5388186,9.36173275 L22.4844043,9.36173275 C23.2406551,9.36173275 23.8536767,10.0091293 23.8536767,10.8112136 L23.8536767,22.4041958 C23.8536767,23.2034155 23.2406551,23.8536767 22.4844043,23.8536767 L11.5388186,23.8536767 C10.7825677,23.8536767 10.1695462,23.2062801 10.1695462,22.4041958 L10.1695462,10.8112136 C10.1695462,10.0119939 10.7825677,9.36173275 11.5388186,9.36173275 Z" id="形状"></path>
                </g>
            </g>
        </g>
    </g>
</svg>