<?xml version="1.0" encoding="UTF-8"?>
<svg width="19px" height="18px" viewBox="0 0 19 18" version="1.1" xmlns="http://www.w3.org/2000/svg" xmlns:xlink="http://www.w3.org/1999/xlink">
    <title>mdpi/返回备份</title>
    <g id="页面-1" stroke="none" stroke-width="1" fill="none" fill-rule="evenodd">
        <g id="画布" transform="translate(-195.000000, -18.000000)" fill="#2C2C2C" fill-rule="nonzero">
            <g id="编组-14" transform="translate(136.000000, 18.000000)">
                <g id="返回备份" transform="translate(68.500000, 9.000000) scale(-1, 1) translate(-68.500000, -9.000000) translate(59.500000, 0.000000)">
                    <path d="M5.4800087,17.800023 C5.09500826,17.800023 4.7870079,17.4920227 4.7870079,17.1070222 C4.7870079,16.7220218 5.09500826,16.4140214 5.4800087,16.4140214 L11.0020151,16.4140214 C15.2810201,16.4140214 16.4140214,12.8940173 16.4140214,11.0350152 C16.4140214,9.02201283 15.7100206,5.63400888 11.0240152,5.63400888 L2.54300529,5.63400888 L5.75500902,8.84601262 C5.88700918,8.97801277 5.95300925,9.15401298 5.95300925,9.33001318 C5.95300925,9.5170134 5.87600916,9.69301361 5.75500902,9.81401375 C5.62300887,9.9460139 5.44700867,10.012014 5.27100846,10.012014 C5.08400824,10.012014 4.90800804,9.93501389 4.77600788,9.81401375 L0.409002803,5.44700867 L0.409002761,5.44700862 C0.144961633,5.17408369 0.144961633,4.74093241 0.409002846,4.46800748 L4.47900758,0.398002746 C4.61100774,0.266002593 4.78700794,0.200002516 4.96300815,0.200002516 C5.15000836,0.200002516 5.32600857,0.277002606 5.45800872,0.398002746 L5.45800875,0.398002776 C5.72204988,0.670927703 5.72204988,1.10407899 5.45800869,1.37700392 L2.57600534,4.25900727 L11.0240152,4.25900727 C13.5100181,4.25900727 15.3580202,5.07300822 16.5240216,6.66801007 C17.5800228,8.10901175 17.8000231,9.84701377 17.8000231,11.0460152 C17.8000231,13.7630183 15.996021,17.811023 11.0130152,17.811023 L5.48000872,17.811023 L5.4800087,17.800023 Z" id="路径"></path>
                </g>
            </g>
        </g>
    </g>
</svg>