<?xml version="1.0" encoding="UTF-8"?>
<svg width="20px" height="16px" viewBox="0 0 20 16" version="1.1" xmlns="http://www.w3.org/2000/svg" xmlns:xlink="http://www.w3.org/1999/xlink">
    <title>mdpi/视频</title>
    <defs>
        <linearGradient x1="30.7668556%" y1="25.215696%" x2="50%" y2="68.1956501%" id="linearGradient-1">
            <stop stop-color="#FFFFFF" offset="0%"></stop>
            <stop stop-color="#DBD4FF" offset="100%"></stop>
        </linearGradient>
    </defs>
    <g id="页面-1" stroke="none" stroke-width="1" fill="none" fill-rule="evenodd">
        <g id="1动画制作视图" transform="translate(-1805.000000, -78.000000)" fill-rule="nonzero">
            <g id="视频" transform="translate(1805.000000, 78.000000)">
                <polygon id="路径" fill="#FFFFFF" points="8.79001023 3.56424273 5.96000694 0.10635635 2.7500032 0.10635635 5.58000649 3.55388977 8.79001023 3.55388977"></polygon>
                <polygon id="路径" fill="#FFFFFF" points="17.1300199 3.56424273 14.2900166 0.10635635 11.0800129 0.10635635 13.9100162 3.55388977 17.1300199 3.55388977"></polygon>
                <polygon id="路径" fill="#FFFFFF" points="12.9600151 3.56424273 10.1300118 0.10635635 6.92000805 0.10635635 9.75001135 3.55388977 12.9600151 3.55388977"></polygon>
                <path d="M18.3300213,0.10635635 L15.2500177,0.10635635 L18.080021,3.55388977 L19.5800228,3.55388977 L19.5800228,1.4004755 L19.5800228,1.4004737 C19.5934091,0.699611116 19.0554675,0.120215772 18.378498,0.106356565 C18.3623398,0.10602578 18.3461769,0.106025804 18.3300186,0.106356636 L18.3300213,0.10635635 Z" id="路径" fill="#FFFFFF"></path>
                <path d="M1.79000208,0.10635635 L1.67000194,0.10635635 L1.67000193,0.10635635 C0.993032391,0.0924966576 0.433387209,0.649423342 0.420000475,1.35028592 C0.419680943,1.36701441 0.419680943,1.3837478 0.420000475,1.40047631 L0.420000475,3.55389058 L4.63000537,3.55389058 L1.79000207,0.106357159 L1.79000208,0.10635635 Z" id="路径" fill="#FFFFFF"></path>
                <path d="M19.5900236,4.42353668 L19.5900236,14.7438567 C19.5766369,15.4447192 19.0169917,16.0016459 18.3400221,15.9877862 L18.3400221,15.9877862 L1.62152334,15.9877863 C0.9445538,15.9739271 0.40661417,15.3945318 0.420000456,14.6936692 L0.420000456,14.6936692 L0.420001288,4.42353668 L19.5900236,4.42353668 Z M8.48000984,7.14636454 L8.36603158,7.15079883 C7.91639974,7.18636737 7.55000879,7.43704361 7.55000879,7.94354194 L7.55000879,7.94354194 L7.55000879,12.4367236 C7.55000879,12.9750772 7.98000933,13.233901 8.48000991,13.233901 C8.65465269,13.2420744 8.82797379,13.1990091 8.98001049,13.1096656 L8.98001049,13.1096656 L12.5100145,10.9976631 C12.6641553,10.9127002 12.7903225,10.7820791 12.87239,10.622498 C13.1002769,10.1793694 12.9380365,9.62888545 12.5100145,9.3929554 L12.5100145,9.3929554 L8.98001042,7.27059998 C8.82587939,7.18688442 8.65405106,7.1441901 8.48000984,7.14636454 L8.48000984,7.14636454 Z" id="形状结合" fill="url(#linearGradient-1)"></path>
            </g>
        </g>
    </g>
</svg>