<?xml version="1.0" encoding="UTF-8"?>
<svg width="20px" height="16px" viewBox="0 0 20 16" version="1.1" xmlns="http://www.w3.org/2000/svg" xmlns:xlink="http://www.w3.org/1999/xlink">
    <title>mdpi/图片未选</title>
    <defs>
        <linearGradient x1="30.7668556%" y1="-0.0161083756%" x2="50%" y2="86.7198373%" id="linearGradient-1">
            <stop stop-color="#B6A0FC" offset="0%"></stop>
            <stop stop-color="#7F67F8" offset="100%"></stop>
        </linearGradient>
    </defs>
    <g id="页面-1" stroke="none" stroke-width="1" fill="none" fill-rule="evenodd">
        <g id="1动画制作视图" transform="translate(-1721.000000, -19.000000)">
            <g id="图片未选" transform="translate(1721.000000, 19.000000)">
                <rect id="矩形" x="0" y="0" width="20" height="16"></rect>
                <g id="图片-" transform="translate(1.000000, 0.000000)" fill="url(#linearGradient-1)" fill-rule="nonzero">
                    <path d="M13.9555013,6.73159827 L13.9555013,6.73159827 C15.048568,6.75156985 15.9508593,5.88165436 15.9708277,4.78858101 C15.9907993,3.69551427 15.1208838,2.79322297 14.0278105,2.77325453 C14.0037068,2.77281413 13.9795972,2.77281409 13.9554935,2.77325441 L13.9554935,2.77325441 C12.8624267,2.79322599 11.9925078,3.69552075 12.0124762,4.78858089 C12.0319338,5.85351509 12.8905593,6.71214172 13.9554935,6.73159815 L13.9555013,6.73159827 Z M17.4177225,0.136263603 L1.25674278,0.136263603 C0.613342627,0.136263603 0.101744123,0.659853083 0.101744123,1.30325324 L0.101744123,14.7983381 C0.101744123,15.4417218 0.613342627,15.9653278 1.25674278,15.9653278 L17.4177225,15.9653278 C18.0611061,15.9653278 18.5727211,15.4417218 18.5727211,14.7983381 L18.5727211,1.30325324 C18.5727211,0.659853083 18.0611061,0.136263603 17.4177225,0.136263603 Z M13.168358,8.28616403 L13.1683581,8.28616408 C13.0377101,8.12854401 12.845193,8.03524215 12.6405239,8.03035657 C12.4305331,8.03035657 12.2825453,8.12900961 12.1127062,8.26502296 L11.3417656,8.91687956 C11.1810931,9.03244549 11.052826,9.11066762 10.8682046,9.11066762 L10.8682046,9.11066762 C10.7013302,9.11170209 10.5398649,9.05153014 10.4143643,8.94153869 L10.4143638,8.94153824 C10.3539377,8.88646877 10.2947284,8.83007881 10.2367784,8.77240931 L8.01907532,6.37360279 L8.01907531,6.37360278 C7.84538948,6.17531067 7.59418512,6.06217267 7.33058512,6.06352206 C7.05434671,6.06352206 6.7985392,6.20024563 6.63786671,6.38557725 L1.42093284,12.6757696 L1.42093284,1.93818002 C1.46181117,1.65769686 1.68027488,1.45545235 1.96074152,1.45545235 L16.7087844,1.45545235 C16.9934793,1.45545235 17.223934,1.66615331 17.2408303,1.95015448 L17.2528213,12.6842096 L13.1669207,8.28616362 L13.168358,8.28616403 Z" id="形状"></path>
                </g>
            </g>
        </g>
    </g>
</svg>