<?xml version="1.0" encoding="UTF-8"?>
<svg width="20px" height="16px" viewBox="0 0 20 16" version="1.1" xmlns="http://www.w3.org/2000/svg" xmlns:xlink="http://www.w3.org/1999/xlink">
    <title>mdpi/编组 6备份</title>
    <g id="页面-1" stroke="none" stroke-width="1" fill="none" fill-rule="evenodd">
        <g id="文字" transform="translate(-55.000000, -22.000000)">
            <g id="编组-6备份" transform="translate(55.000000, 22.000000)">
                <rect id="矩形" x="0" y="0" width="20" height="16"></rect>
                <g id="字体" transform="translate(1.600000, 0.000000)" fill="#FFFFFF" fill-rule="nonzero">
                    <path d="M15.3221037,0.0015266368 L1.73053177,0.0015266368 C1.03419703,0.0015266368 0.467498719,0.56431277 0.467498719,1.25609832 L0.467498719,14.7439339 C0.467498719,15.4357174 1.03419703,15.9987118 1.73053177,15.9987118 L15.3221037,15.9987118 C16.0184384,15.9987118 16.5851368,15.4357174 16.5851368,14.7439339 L16.5851368,1.25609832 C16.5851368,0.564106519 16.0184384,0.0015266368 15.3221037,0.0015266368 Z M14.4659094,1.42961341 C14.764994,1.42961341 15.0071799,1.6704227 15.0071799,1.9673462 C15.0071799,2.26447596 14.764994,2.505079 14.4659094,2.505079 C14.1668249,2.505079 13.9246389,2.26426971 13.9246389,1.9673462 C13.9246389,1.6704227 14.1668249,1.42961341 14.4659094,1.42961341 Z M12.5263417,1.42961341 C12.8254262,1.42961341 13.0676122,1.6704227 13.0676122,1.9673462 C13.0676122,2.26447596 12.8254262,2.505079 12.5263417,2.505079 C12.2272571,2.505079 11.9850712,2.26426971 11.9850712,1.9673462 C11.9850712,1.6704227 12.2272571,1.42961341 12.5263417,1.42961341 Z M15.1418254,14.5646195 L1.91081822,14.5646195 L1.91081822,3.83999121 L15.1416015,3.83999121 L15.1416015,14.5646195 L15.1418254,14.5646195 Z M4.54193354,11.8743075 L4.44293342,11.8743075 C4.1186307,11.8743075 3.9562697,11.823164 3.9562697,11.7208768 C3.9562697,11.6293567 4.05777087,11.4247823 4.2607724,11.1077757 L4.75598058,10.3257132 L7.19534423,10.3257132 L7.34665809,11.1235114 C7.39146867,11.3647352 7.41376975,11.5521236 7.41376975,11.685883 C7.41376975,11.8115678 7.22264742,11.8745138 6.83998633,11.8745138 L6.71764303,11.8745138 L6.66595455,12.1182227 L8.86188864,12.1182227 L8.91316028,11.8745138 L8.81436859,11.8705797 C8.60844876,11.8600197 8.47068106,11.8088761 8.40085992,11.7171489 C8.33103879,11.6254217 8.26184292,11.4013838 8.19306349,11.045036 L7.25620976,6.20254323 L6.96712902,6.20254323 L3.90875005,11.1156464 C3.65551818,11.5086441 3.49920221,11.7293702 3.44000974,11.7780291 C3.38060967,11.8264809 3.22700277,11.8573327 2.97898143,11.8703775 L2.90394977,11.8743116 L2.85642971,12.1180205 L4.49066027,12.1180205 L4.54193191,11.8743116 L4.54193354,11.8743075 Z M6.61281485,7.24799334 L7.12282217,9.98366013 L4.91355644,9.98366013 L6.61281485,7.24799334 Z M10.3919163,12.2161774 C10.7395626,12.2161774 11.1149306,12.0436972 11.5175989,11.6983235 C11.9206865,11.3529494 12.2862562,10.89307 12.6138949,10.3180686 L12.2527012,12.1178264 L13.7658398,12.1178264 L13.8131514,11.8741175 L13.7420798,11.8701834 C13.462378,11.8517551 13.2975176,11.8335339 13.2474965,11.8148986 C13.1972669,11.7966774 13.1722564,11.7455338 13.1722564,11.6616749 C13.1722564,11.5016182 13.1945574,11.3142302 13.239368,11.099095 L13.8833898,7.84909672 L13.1055611,7.84909672 C12.9448683,7.81658845 12.8064766,7.79194842 12.6905952,7.77559076 C12.5747129,7.75923309 12.4800897,7.75095073 12.4063077,7.75095073 C11.7060122,7.75095073 11.0540707,8.11744527 10.4508987,8.85043436 C9.8479363,9.5836297 9.54655789,10.3762534 9.54655789,11.2284996 C9.54655789,11.5562737 9.61679587,11.8028823 9.7578979,11.968115 C9.89879069,12.1335552 10.1101299,12.2161774 10.3919159,12.2161774 L10.3919163,12.2161774 Z M10.5822049,9.79504226 C10.7214304,9.32356837 10.888167,8.9461001 11.0826236,8.66325822 C11.3266842,8.30939347 11.6457784,8.13256625 12.0396946,8.13256625 C12.2103917,8.13256625 12.3756702,8.15182274 12.5361546,8.19054278 C12.6964306,8.22905577 12.8525377,8.28827466 13.0051025,8.36840652 L12.7314457,9.73251123 C11.9150591,11.0005418 11.2554057,11.634555 10.7524855,11.634555 C10.6259738,11.634555 10.5313514,11.5873455 10.4681981,11.4931336 C10.404838,11.3987147 10.3735748,11.2572926 10.3735748,11.0686626 C10.3735748,10.6911943 10.4429791,10.2667232 10.5822037,9.79504307 L10.5822049,9.79504226 Z" id="形状"></path>
                </g>
            </g>
        </g>
    </g>
</svg>