<?xml version="1.0" encoding="UTF-8"?>
<svg width="28px" height="28px" viewBox="0 0 28 28" version="1.1" xmlns="http://www.w3.org/2000/svg" xmlns:xlink="http://www.w3.org/1999/xlink">
    <title>mdpi/编组 2</title>
    <g id="页面-1" stroke="none" stroke-width="1" fill="none" fill-rule="evenodd">
        <g id="画布" transform="translate(-26.000000, -75.000000)">
            <g id="编组-2" transform="translate(26.000000, 75.000000)">
                <rect id="矩形备份-4" x="0" y="0" width="28" height="28"></rect>
                <g id="元素" transform="translate(2.000000, 2.000000)" fill="#5584FF">
                    <path d="M10.1253546,4.52713378 C9.99276514,3.40380658 9.48450562,2.36150626 8.68528594,1.56228658 C6.71854258,-0.404456777 3.52902994,-0.404456777 1.56228658,1.56228658 C-0.404456777,3.52902994 -0.404456777,6.71854258 1.56228658,8.68528594 C2.37623842,9.49923778 3.44432002,10.0074973 4.58974546,10.1290376 L4.58606242,10.1327207 L10.3635359,10.8036531 C10.582975,10.8291363 10.7815239,10.671904 10.8070072,10.4524648 C10.8105786,10.4217109 10.8105674,10.3906463 10.8069738,10.359895 L10.1253546,4.52713378 L10.1253546,4.52713378 Z M19.4729101,13.8746893 L13.6361731,13.1963933 C13.416736,13.1708922 13.2181743,13.3281084 13.1926732,13.5475455 C13.1891092,13.578214 13.1891079,13.6091921 13.1926694,13.6398609 L13.8636402,19.4176645 L13.8636402,19.4176645 C13.9851805,20.5188935 14.4639757,21.5943411 15.3110749,22.4414403 C17.2778183,24.4081837 20.4673309,24.4081837 22.4340743,22.4414403 C24.4008176,20.474697 24.4008176,17.2851843 22.4340743,15.318441 C21.6422207,14.5118552 20.5962373,14.0072787 19.4729101,13.8746893 Z M4.58606242,13.8710063 C3.44063698,13.9888635 2.37255538,14.5008061 1.55860354,15.3147579 C-0.408139817,17.2815013 -0.408139817,20.4710139 1.55860354,22.4377573 C3.5253469,24.4045007 6.71485954,24.4045007 8.6816029,22.4377573 C9.48082258,21.6385376 9.9890821,20.5962373 10.1216715,19.4729101 L10.79989,13.6368402 C10.8253911,13.4174031 10.6681749,13.2188415 10.4487378,13.1933404 C10.4178975,13.1897564 10.3867447,13.1897752 10.3559087,13.1933966 L4.58606242,13.8710063 L4.58606242,13.8710063 Z M19.4729101,10.1253546 C20.5962373,9.99276514 21.6385376,9.48450562 22.4377573,8.68528594 C24.4045007,6.71854258 24.4045007,3.52902994 22.4377573,1.56228658 C20.4710139,-0.404456777 17.2815013,-0.404456777 15.3147579,1.56228658 C14.4676587,2.40938578 13.9888635,3.48483346 13.8710063,4.58974546 L13.1967542,10.3632401 C13.1711292,10.5826628 13.3282332,10.7813132 13.5476558,10.8069383 C13.5784933,10.8105396 13.6096452,10.8105384 13.6404824,10.8069348 L19.4729101,10.1253546 L19.4729101,10.1253546 Z" id="形状"></path>
                </g>
            </g>
        </g>
    </g>
</svg>