<?xml version="1.0" encoding="UTF-8"?>
<svg width="16px" height="16px" viewBox="0 0 16 16" version="1.1" xmlns="http://www.w3.org/2000/svg" xmlns:xlink="http://www.w3.org/1999/xlink">
    <title>mdpi/编组 6</title>
    <g id="页面-1" stroke="none" stroke-width="1" fill="none" fill-rule="evenodd">
        <g id="文字" transform="translate(-44.000000, -579.000000)">
            <g id="编组-38" transform="translate(24.000000, 572.000000)">
                <g id="编组-6" transform="translate(20.000000, 7.000000)">
                    <g id="编组-36">
                        <rect id="矩形" x="0" y="0" width="16" height="16"></rect>
                    </g>
                    <g id="锁定" transform="translate(2.000000, 1.000000)" fill="#333333" fill-rule="nonzero">
                        <path d="M8.13933556,5.6732289 L8.13933556,4.02895615 C8.13933556,2.75397637 7.10665206,1.72129288 5.83167228,1.72129288 C4.5566925,1.72129288 3.524009,2.75564738 3.524009,4.03062716 L3.524009,5.67489991 L8.13933556,5.67489991 L8.13933556,5.6732289 Z M1.74104252,5.69161 L1.73937151,5.63980872 L1.73937151,3.83344811 C1.73937151,2.83251379 2.13707163,1.87168368 2.8455794,1.16317591 C3.55408716,0.454668138 4.51324627,0.0569680222 5.5158516,0.0569680222 L6.14916397,0.0569680222 C8.23458306,0.0569680222 9.92397305,1.74802902 9.92397305,3.8317771 L9.92397305,5.69161 C10.8965002,5.82696172 11.6200471,6.65912414 11.6200471,7.64167737 L11.6200471,11.9578933 C11.6200471,13.0457201 10.7394254,13.9263418 9.6515986,13.9263418 L2.01174596,13.9263418 C0.923919173,13.9263418 0.0432974889,13.0457201 0.0432974889,11.9578933 L0.0432974889,7.64334838 C0.0432974889,6.66079515 0.766844338,5.82863272 1.74104252,5.69161 Z M5.37715786,10.1364936 L5.37715786,11.4231705 C5.37715786,11.6738218 5.58102095,11.8776849 5.83167228,11.8776849 C6.08232361,11.8776849 6.2861867,11.6738218 6.2861867,11.4231705 L6.2861867,10.1364936 C6.84597468,9.91759148 7.17182141,9.33106736 7.05986381,8.74120122 C6.94790622,8.14966407 6.43323548,7.7218858 5.83167228,7.7218858 C5.23010908,7.7218858 4.71376733,8.14966407 4.60348075,8.74120122 C4.49152315,9.33106736 4.81736988,9.91759148 5.37715786,10.1364936 L5.37715786,10.1364936 Z" id="形状"></path>
                    </g>
                </g>
            </g>
        </g>
    </g>
</svg>