<?xml version="1.0" encoding="UTF-8"?>
<svg width="28px" height="28px" viewBox="0 0 28 28" version="1.1" xmlns="http://www.w3.org/2000/svg" xmlns:xlink="http://www.w3.org/1999/xlink">
    <title>mdpi/编组 4</title>
    <g id="页面-1" stroke="none" stroke-width="1" fill="none" fill-rule="evenodd">
        <g id="画布" transform="translate(-26.000000, -315.000000)">
            <g id="编组-10" transform="translate(26.000000, 315.000000)">
                <rect id="矩形备份-8" x="0" y="0" width="28" height="28"></rect>
                <g id="上传" transform="translate(2.000000, 2.000000)" fill="#333333" fill-rule="nonzero">
                    <path d="M21.3600249,5.21501388 L14.1300164,5.21501388 L14.1300165,5.21501388 C13.7330598,5.21748361 13.3673593,4.9999884 13.1800162,4.65001244 L11.2950132,1.12001615 L11.2950132,1.1200161 C10.9252112,0.431069988 10.2069306,0.000869486908 9.42501019,1.4017079e-05 L2.64001011,1.4017079e-05 L2.64001016,1.4017079e-05 C1.18311705,0.00276544216 0.00274927399,1.18312399 7.08330309e-06,2.64001709 L7.08330309e-06,21.3600389 L7.08330309e-06,21.3600455 C0.00276215365,22.8169386 1.1831241,23.9972829 2.64001017,24.0000485 L21.360032,24.0000485 L21.360032,24.0000485 C22.8169228,23.9972934 23.9972695,22.8169339 24.0000351,21.3600455 L24.0000351,7.86002975 L24.0000351,7.86002503 C24.0000351,6.40117958 22.8188681,5.21777195 21.360032,5.21502976 L21.3600249,5.21501388 Z M15.450018,14.7150171 L13.6350159,14.7150171 L13.6350159,19.3300303 L13.6350159,19.3300303 C13.6350159,19.6641627 13.3641484,19.9350302 13.0300159,19.9350302 C13.0300159,19.9350302 13.0300159,19.9350302 13.0300159,19.9350302 L10.9700143,19.9350302 L10.9700143,19.9350302 C10.6358819,19.9350302 10.3650144,19.6641627 10.3650144,19.3300303 C10.3650144,19.3300303 10.3650144,19.3300303 10.3650144,19.3300303 L10.3650144,14.6900327 L8.55001227,14.6900327 L8.5500123,14.6900327 C8.18001812,14.684772 7.88434434,14.3805683 7.88953463,14.0105741 C7.89182479,13.8543632 7.94856434,13.7038402 8.05001086,13.5850307 L11.5000149,9.54503376 L11.5000149,9.54503373 C11.7463246,9.26889044 12.1698547,9.24470526 12.445998,9.49101586 C12.4650167,9.50797985 12.4830521,9.52601512 12.5000159,9.54503373 L15.9500199,13.5850306 L15.95002,13.5850306 C16.1903015,13.8664333 16.1569656,14.2893424 15.8755622,14.5296239 C15.7567541,14.6310705 15.6062299,14.6878099 15.4500187,14.6900311 L15.450018,14.7150171 Z" id="形状"></path>
                </g>
            </g>
        </g>
    </g>
</svg>