<?xml version="1.0" encoding="UTF-8"?>
<svg width="26px" height="26px" viewBox="0 0 26 26" version="1.1" xmlns="http://www.w3.org/2000/svg" xmlns:xlink="http://www.w3.org/1999/xlink">
    <title>mdpi/编组 30备份 5</title>
    <g id="页面-1" stroke="none" stroke-width="1" fill="none" fill-rule="evenodd">
        <g id="文字" transform="translate(-246.000000, -515.000000)">
            <g id="编组-29备份" transform="translate(246.000000, 515.000000)">
                <rect id="矩形" x="0" y="0" width="26" height="26"></rect>
                <g id="编组-31" transform="translate(4.000000, 3.000000)" fill="#5584FF">
                    <rect id="矩形备份-17" x="0" y="8.99133105" width="19" height="2"></rect>
                    <path d="M9.37564648,18.3167695 C13.241501,18.3167695 15.5896396,15.9964922 15.5896396,13.157792 C15.5896396,10.5638613 14.0900938,9.27653027 11.987709,8.38853027 L9.56560156,7.36323047 C8.14002441,6.77091504 6.71917871,6.20736914 6.71917871,4.68185449 C6.71917871,3.29170898 7.87027051,2.42574023 9.67610059,2.42574023 C11.237085,2.42574023 12.4783848,3.02191699 13.5804541,3.99440918 L15.0193936,2.22526172 C13.7023086,0.865930664 11.7612236,-2.84217094e-14 9.67610059,-2.84217094e-14 C6.30656152,-2.84217094e-14 3.87203809,2.0831543 3.87203809,4.87192383 C3.87203809,7.4533623 5.75077637,8.78100879 7.46435352,9.49332422 L9.91333789,10.5589395 C11.5443916,11.2703086 12.7396221,11.775293 12.7396221,13.3776152 C12.7396221,14.8762529 11.5414766,15.8775908 9.42940039,15.8775908 C7.71767773,15.8775908 5.97718555,15.0490986 4.71862402,13.7895527 L3.08386133,15.717085 C4.69950781,17.3471543 6.94203125,18.3167695 9.37564648,18.3167695 Z" id="S" fill-rule="nonzero"></path>
                </g>
            </g>
        </g>
    </g>
</svg>