<?xml version="1.0" encoding="UTF-8"?>
<svg width="30px" height="30px" viewBox="0 0 30 30" version="1.1" xmlns="http://www.w3.org/2000/svg" xmlns:xlink="http://www.w3.org/1999/xlink">
    <title>mdpi/编组 40</title>
    <defs>
        <circle id="path-1" cx="12" cy="12" r="12"></circle>
        <filter x="-18.8%" y="-18.8%" width="137.5%" height="137.5%" filterUnits="objectBoundingBox" id="filter-2">
            <feOffset dx="0" dy="0" in="SourceAlpha" result="shadowOffsetOuter1"></feOffset>
            <feGaussianBlur stdDeviation="1.5" in="shadowOffsetOuter1" result="shadowBlurOuter1"></feGaussianBlur>
            <feColorMatrix values="0 0 0 0 0   0 0 0 0 0   0 0 0 0 0  0 0 0 0.4 0" type="matrix" in="shadowBlurOuter1"></feColorMatrix>
        </filter>
    </defs>
    <g id="页面-1" stroke="none" stroke-width="1" fill="none" fill-rule="evenodd">
        <g id="花瓣上的操作" transform="translate(-500.000000, -464.000000)">
            <g id="编组-40" transform="translate(503.000000, 467.000000)">
                <g id="椭圆形">
                    <use fill="black" fill-opacity="1" filter="url(#filter-2)" xlink:href="#path-1"></use>
                    <use fill="#FFFFFF" fill-rule="evenodd" xlink:href="#path-1"></use>
                </g>
                <g id="旋转" transform="translate(4.363636, 4.363636)" fill="#333333" fill-rule="nonzero">
                    <path d="M14.7388371,1.42739877 L13.8796283,2.23748535 L13.870179,2.19548557 L13.8701795,2.19548605 C12.3232192,0.783052182 10.2528128,-0.00461265883 8.09937656,2.03227973e-05 L8.09937621,2.03227973e-05 C3.62622558,2.03227973e-05 0,3.41893477 0,7.63636363 C0,11.8537776 3.62620977,15.2727069 8.09937621,15.2727069 L8.09937577,15.2727069 C10.252812,15.2773411 12.3232121,14.4896795 13.8701787,13.0772412 L12.2276944,11.5286601 L12.2276945,11.52866 C11.7002176,12.0055944 11.0832961,12.3859168 10.4083805,12.6502436 L10.4083807,12.6502435 C8.92871314,13.2261584 7.26735302,13.2261584 5.78769808,12.650244 L5.78769831,12.6502441 C5.08696541,12.3759644 4.44895023,11.976776 3.90865012,11.4745696 L3.90864995,11.4745695 C1.65968011,9.40684151 1.61438907,6.01169227 3.80749954,3.89129938 C3.84079107,3.85911159 3.87451066,3.82731979 3.90865027,3.7959316 L3.90865059,3.79593129 C4.44896178,3.29373086 5.08697537,2.89454246 5.78769879,2.62025685 L5.78769872,2.62025688 C7.26736632,2.04434198 8.92872644,2.04434198 10.4083814,2.62025657 L10.4083813,2.62025653 C11.0833048,2.88458338 11.7002263,3.26490578 12.2276953,3.74184018 L12.2678547,3.75488555 L11.3725364,4.59901714 L11.3725364,4.59901714 C11.2504564,4.71428902 11.2506037,4.90104318 11.3728653,5.01614383 C11.4314397,5.07128747 11.5108065,5.10229623 11.5935812,5.10237826 L14.9602257,5.10237826 L14.9602257,5.10237826 C15.1328157,5.10237837 15.2727261,4.97046601 15.2727261,4.80774411 C15.2727261,4.80763799 15.2727261,4.80753187 15.2727261,4.80742575 L15.2727261,1.63612103 L15.2727261,1.63611727 C15.2729922,1.47339596 15.1332971,1.34127877 14.960708,1.3410282 C14.8774571,1.340907 14.7975954,1.37211004 14.7388388,1.4277159 L14.7388371,1.42739877 Z" id="形状"></path>
                </g>
            </g>
        </g>
    </g>
</svg>