<?xml version="1.0" encoding="UTF-8"?>
<svg width="28px" height="28px" viewBox="0 0 28 28" version="1.1" xmlns="http://www.w3.org/2000/svg" xmlns:xlink="http://www.w3.org/1999/xlink">
    <title>mdpi/编组</title>
    <g id="页面-1" stroke="none" stroke-width="1" fill="none" fill-rule="evenodd">
        <g id="画布" transform="translate(-26.000000, -155.000000)">
            <g id="编组" transform="translate(26.000000, 155.000000)">
                <rect id="矩形" x="0" y="0" width="28" height="28"></rect>
                <g id="字体-nor" transform="translate(2.000000, 2.000000)">
                    <path d="M2.76000461,0.120001536 L21.2400261,0.120001536 C23.000029,0.120001536 23.8800292,1.0000017 23.8800292,2.76000461 L23.8800292,21.2400261 C23.8800292,23.000029 23.000029,23.8800292 21.2400261,23.8800292 L2.76000461,23.8800292 C1.0000017,23.8800292 0.120001536,23.000029 0.120001536,21.2400261 L0.120001536,2.76000461 C0.120001536,1.0000017 1.0000017,0.120001536 2.76000461,0.120001536 Z" id="路径" fill="#5584FF"></path>
                    <path d="M14.8182186,15.6881048 L14.275698,14.2598631 L9.64777778,14.2598631 L9.10393715,15.7197848 C8.8927369,16.2887055 8.71057669,16.672826 8.56009651,16.8721462 C8.40961634,17.0714664 8.16409605,17.1717865 7.82221565,17.1717865 L7.8222156,17.1717865 C7.53380299,17.1719098 7.25727041,17.0569247 7.0539747,16.8523462 L7.05397468,16.8523461 C6.84545234,16.6703605 6.72405164,16.4083641 6.7200143,16.1316253 C6.7200143,15.9771851 6.74641433,15.8161449 6.79789439,15.6511447 C6.84937445,15.4848246 6.93517455,15.2551443 7.05397468,14.9594639 L9.96589292,7.56745534 L10.2642133,6.80185445 L10.2642133,6.80185423 C10.3618295,6.54233728 10.4870696,6.29406871 10.6377738,6.06133337 C10.7697739,5.86465314 10.9426941,5.70493295 11.1578544,5.58349281 C11.3730146,5.46205267 11.6370149,5.4013326 11.9538153,5.4013326 C12.2745757,5.4013326 12.542536,5.46205267 12.7576962,5.58349281 C12.9715365,5.70493295 13.1457767,5.86201313 13.2777769,6.05341336 C13.409777,6.24481358 13.5206571,6.45073382 13.6117372,6.67117408 C13.7014973,6.89029433 13.8163375,7.18465467 13.9562576,7.5516151 L16.9302314,14.8974236 C17.1638717,15.4571043 17.2800318,15.8623448 17.2800318,16.1171051 C17.2800318,16.3811054 17.1704717,16.6226657 16.9500314,16.8431059 L16.9500314,16.8431059 C16.7416336,17.0582554 16.4535665,17.1776851 16.1540705,17.1731063 L16.1540704,17.1731063 C15.9932607,17.1772987 15.8336968,17.143849 15.6881099,17.0754262 L15.6881099,17.0754262 C15.5611938,17.012698 15.4498233,16.9225195 15.3620695,16.8114259 L15.3620696,16.811426 C15.2471617,16.6527753 15.1518694,16.4808069 15.0782693,16.2992654 L15.0782688,16.2992643 C14.9893582,16.0969717 14.9026833,15.8937041 14.8182594,15.6894983 L14.8182186,15.6881048 Z M10.2523179,12.528016 L13.6539618,12.528016 L11.9379598,7.83012535 L10.2523179,12.528016 L10.2523179,12.528016 Z" id="形状" fill="#FEFEFF" fill-rule="nonzero"></path>
                </g>
            </g>
        </g>
    </g>
</svg>