<?xml version="1.0" encoding="UTF-8"?>
<svg width="26px" height="24px" viewBox="0 0 26 24" version="1.1" xmlns="http://www.w3.org/2000/svg" xmlns:xlink="http://www.w3.org/1999/xlink">
    <title>mdpi/路径 4</title>
    <g id="页面-1" stroke="none" stroke-width="1" fill="none" fill-rule="evenodd">
        <g id="2动画制作视图-点击更多时弹窗下拉样式" transform="translate(-1853.000000, -292.000000)">
            <g id="编组-13备份" transform="translate(1620.000000, 222.000000)">
                <g id="位图备份-12" transform="translate(246.000000, 82.000000) scale(-1, 1) translate(-246.000000, -82.000000) translate(220.000000, 56.000000)">
                    <g id="路径-4" transform="translate(13.936621, 14.000000)">
                        <g id="编组-2" transform="translate(0.063379, 0.000000)">
                            <circle id="椭圆形" fill="#5CD5E2" cx="12" cy="12" r="12"></circle>
                            <g id="编组-5" transform="translate(3.000000, 4.000000)" fill="#FFFFFF" opacity="0.200000003">
                                <path d="M7.29777168,1.50860032 C6.95294823,1.50860032 6.65122897,1.20688107 6.65122897,0.862057616 C6.65122897,0.560338359 6.82364029,0.34482345 7.08225677,0.258617083 C7.59949093,0.0862057616 8.1167251,5.48339152e-13 8.63395926,5.48339152e-13 C8.97878271,5.48339152e-13 9.28050197,0.301719256 9.28050197,0.646542707 C9.28050197,0.991366157 8.97878271,1.29308541 8.63395926,1.29308541 C8.24603364,1.29308541 7.85810802,1.33618819 7.47018239,1.46549673 C7.42707961,1.50860032 7.34087385,1.50860032 7.29777107,1.50860032 L7.29777168,1.50860032 Z" id="路径"></path>
                                <path d="M0.946413849,8.973123 C0.694692649,8.973123 0.484924327,8.80529457 0.401018572,8.59552684 C-0.396097904,6.74957072 0.0234367727,4.60993463 1.40790337,3.14157407 C1.65962457,2.88985287 2.03720637,2.8479 2.28892757,3.09962061 C2.54064877,3.35134181 2.58260165,3.7289236 2.33088104,3.9806448 L2.28892757,4.02259827 C1.61767169,4.73580899 1.19813505,5.65878607 1.19813505,6.62372389 C1.19813505,7.12716629 1.28204218,7.63060869 1.49180913,8.09209821 C1.61766972,8.38577228 1.49180913,8.76335408 1.1561802,8.93116953 C1.11422674,8.973123 1.0303196,8.973123 0.946411882,8.973123 L0.946413849,8.973123 Z" id="路径"></path>
                            </g>
                        </g>
                    </g>
                </g>
            </g>
        </g>
    </g>
</svg>