<?xml version="1.0" encoding="UTF-8"?>
<svg width="14px" height="14px" viewBox="0 0 14 14" version="1.1" xmlns="http://www.w3.org/2000/svg" xmlns:xlink="http://www.w3.org/1999/xlink">
    <title>mdpi/文字备份</title>
    <g id="页面-1" stroke="none" stroke-width="1" fill="none" fill-rule="evenodd">
        <g id="文字备份" transform="translate(-32.000000, -715.000000)" fill="#333333" fill-rule="nonzero">
            <g id="编组-3备份-2" transform="translate(24.000000, 702.000000)">
                <g id="编组-2" transform="translate(8.000000, 13.000000)">
                    <g id="对" transform="translate(1.000000, 3.000000)">
                        <path d="M1.34798336,3.10064106 L1.34798341,3.10064111 C1.03953573,2.80258479 0.53944044,2.80258479 0.230992758,3.10064101 C-0.0774549242,3.39869733 -0.0774549242,3.88194481 0.230992649,4.18000113 C0.230992649,4.18000113 0.230992649,4.18000113 0.230992649,4.18000113 L3.95254021,7.77617271 L3.9525402,7.7761727 C4.25943546,8.07394887 4.7580359,8.07493836 5.06619366,7.77838075 C5.06695689,7.77764625 5.06771857,7.77691023 5.06847868,7.7761727 L11.7683212,1.30305592 L11.7683212,1.30305586 C12.0767689,1.00499954 12.0767689,0.521752061 11.7683211,0.223695737 C11.4598734,-0.0743605871 10.9597782,-0.0743605871 10.6513305,0.223695842 L4.50945692,6.15764122 L1.34797561,3.10064105 L1.34798336,3.10064106 Z" id="路径"></path>
                    </g>
                </g>
            </g>
        </g>
    </g>
</svg>